<svg xmlns="http://www.w3.org/2000/svg" viewBox="0 0 512 512">
  <rect width="512" height="512" rx="96" fill="#059669"/>
  <g fill="white" transform="translate(96, 96) scale(0.625)">
    <path d="M256 288c-35.3 0-64-28.7-64-64s28.7-64 64-64 64 28.7 64 64-28.7 64-64 64zm0-96c-17.7 0-32 14.3-32 32s14.3 32 32 32 32-14.3 32-32-14.3-32-32-32z"/>
    <path d="M352 416H160c-17.7 0-32-14.3-32-32V160c0-17.7 14.3-32 32-32h192c17.7 0 32 14.3 32 32v224c0 17.7-14.3 32-32 32zM160 160v224h192V160H160z"/>
    <path d="M256 96c-8.8 0-16 7.2-16 16v32h32v-32c0-8.8-7.2-16-16-16z"/>
    <circle cx="200" cy="352" r="16"/>
    <circle cx="256" cy="352" r="16"/>
    <circle cx="312" cy="352" r="16"/>
  </g>
</svg>
