<svg xmlns="http://www.w3.org/2000/svg" viewBox="0 0 1200 630" width="1200" height="630">
  <!-- Background gradient -->
  <defs>
    <linearGradient id="bgGrad" x1="0%" y1="0%" x2="100%" y2="100%">
      <stop offset="0%" style="stop-color:#ecfdf5;stop-opacity:1" />
      <stop offset="50%" style="stop-color:#ffffff;stop-opacity:1" />
      <stop offset="100%" style="stop-color:#fff7ed;stop-opacity:1" />
    </linearGradient>
  </defs>

  <rect width="1200" height="630" fill="url(#bgGrad)"/>

  <!-- Logo circle -->
  <rect x="100" y="215" width="200" height="200" rx="40" fill="#059669"/>
  <g fill="white" transform="translate(130, 245) scale(0.27)">
    <path d="M256 288c-35.3 0-64-28.7-64-64s28.7-64 64-64 64 28.7 64 64-28.7 64-64 64zm0-96c-17.7 0-32 14.3-32 32s14.3 32 32 32 32-14.3 32-32-14.3-32-32-32z"/>
    <path d="M352 416H160c-17.7 0-32-14.3-32-32V160c0-17.7 14.3-32 32-32h192c17.7 0 32 14.3 32 32v224c0 17.7-14.3 32-32 32zM160 160v224h192V160H160z"/>
    <path d="M256 96c-8.8 0-16 7.2-16 16v32h32v-32c0-8.8-7.2-16-16-16z"/>
    <circle cx="200" cy="352" r="16"/>
    <circle cx="256" cy="352" r="16"/>
    <circle cx="312" cy="352" r="16"/>
  </g>

  <!-- Title text -->
  <text x="340" y="280" font-family="Inter, system-ui, sans-serif" font-size="72" font-weight="700" fill="#1e293b">Kiwi Meal Planner</text>

  <!-- Subtitle -->
  <text x="340" y="350" font-family="Inter, system-ui, sans-serif" font-size="32" font-weight="400" fill="#64748b">AI-Powered Weekly Meal Planning</text>

  <!-- Features -->
  <text x="340" y="420" font-family="Inter, system-ui, sans-serif" font-size="24" font-weight="500" fill="#059669">Personalized Plans | Smart Shopping Lists | Recipe Cookbook</text>

  <!-- Domain -->
  <text x="1100" y="590" font-family="Inter, system-ui, sans-serif" font-size="20" font-weight="400" fill="#94a3b8" text-anchor="end">www.kiwimealplanner.co.nz</text>
</svg>
